# xmcd
#
# Track frame offsets:
#	150
#	30075
#	55187
#	76061
#	123277
#	163044
#	174962
#	186296
#	199278
#	211501
#	223054
#	236541
#	248559
#	259983
#	272688
#	284945
#	298436
#	310316
#	324569
#	336418
#
# Disc length: 4652 seconds
#
# Revision: 1
# Processed by: cddbd v1.5.1PL0 Copyright (c) Steve Scherf et al.
# Submitted via: audiograbber 1.83.01
#
DISCID=30122a14
DTITLE=Luiz Gonzaga - As 20 mais
DYEAR=2004
DGENRE=Forro
TTITLE0=Asa Branca
TTITLE1=No meu pe de serra
TTITLE2=Vem morena
TTITLE3=Baiao
TTITLE4=Boiadeiro
TTITLE5=Cintura Fina
TTITLE6=No Ceara nao tem disso nao
TTITLE7=Qui nem gilo
TTITLE8=Assum preto
TTITLE9=Paraiba
TTITLE10=Sabia
TTITLE11=Olha pro ceu
TTITLE12=Baiao da garoa
TTITLE13=O xote da meninas
TTITLE14=A triste partida
TTITLE15=Apologia ao jumento - (O jumento e nosso irmao)
TTITLE16=Ovo de codorna
TTITLE17=Karolina com k
TTITLE18=Pagode russo
TTITLE19=A vida do viajante
EXTD=
EXTT0=
EXTT1=
EXTT2=
EXTT3=
EXTT4=
EXTT5=
EXTT6=
EXTT7=
EXTT8=
EXTT9=
EXTT10=
EXTT11=
EXTT12=
EXTT13=
EXTT14=
EXTT15=
EXTT16=
EXTT17=
EXTT18=
EXTT19=
PLAYORDER=
